<?xml version="1.0" encoding="UTF-8"?>
<svg xmlns="http://www.w3.org/2000/svg" width="197" height="334" viewBox="0 0 197 334">
  <g fill="#dab98f">
    <rect x="20" y="11" width="9" height="1"/>
    <rect x="18" y="12" width="13" height="1"/>
    <rect x="17" y="13" width="16" height="1"/>
    <rect x="16" y="14" width="19" height="1"/>
    <rect x="15" y="15" width="22" height="1"/>
    <rect x="14" y="16" width="25" height="1"/>
    <rect x="14" y="17" width="27" height="1"/>
    <rect x="13" y="18" width="29" height="1"/>
    <rect x="13" y="19" width="31" height="1"/>
    <rect x="13" y="20" width="33" height="1"/>
    <rect x="12" y="21" width="36" height="1"/>
    <rect x="12" y="22" width="37" height="1"/>
    <rect x="12" y="23" width="39" height="1"/>
    <rect x="12" y="24" width="40" height="1"/>
    <rect x="11" y="25" width="43" height="1"/>
    <rect x="11" y="26" width="44" height="1"/>
    <rect x="11" y="27" width="46" height="1"/>
    <rect x="11" y="28" width="47" height="1"/>
    <rect x="11" y="29" width="49" height="1"/>
    <rect x="11" y="30" width="50" height="1"/>
    <rect x="11" y="31" width="52" height="1"/>
    <rect x="11" y="32" width="53" height="1"/>
    <rect x="10" y="33" width="56" height="1"/>
    <rect x="10" y="34" width="57" height="1"/>
    <rect x="10" y="35" width="59" height="1"/>
    <rect x="10" y="36" width="60" height="1"/>
    <rect x="10" y="37" width="22" height="1"/>
    <rect x="34" y="37" width="38" height="1"/>
    <rect x="11" y="38" width="21" height="1"/>
    <rect x="35" y="38" width="38" height="1"/>
    <rect x="11" y="39" width="21" height="1"/>
    <rect x="37" y="39" width="38" height="1"/>
    <rect x="11" y="40" width="21" height="1"/>
    <rect x="38" y="40" width="38" height="1"/>
    <rect x="11" y="41" width="21" height="1"/>
    <rect x="40" y="41" width="37" height="1"/>
    <rect x="11" y="42" width="21" height="1"/>
    <rect x="42" y="42" width="37" height="1"/>
    <rect x="11" y="43" width="22" height="1"/>
    <rect x="43" y="43" width="37" height="1"/>
    <rect x="11" y="44" width="22" height="1"/>
    <rect x="45" y="44" width="37" height="1"/>
    <rect x="11" y="45" width="22" height="1"/>
    <rect x="47" y="45" width="36" height="1"/>
    <rect x="12" y="46" width="21" height="1"/>
    <rect x="48" y="46" width="36" height="1"/>
    <rect x="12" y="47" width="21" height="1"/>
    <rect x="50" y="47" width="36" height="1"/>
    <rect x="12" y="48" width="22" height="1"/>
    <rect x="51" y="48" width="36" height="1"/>
    <rect x="12" y="49" width="22" height="1"/>
    <rect x="53" y="49" width="35" height="1"/>
    <rect x="12" y="50" width="22" height="1"/>
    <rect x="54" y="50" width="36" height="1"/>
    <rect x="13" y="51" width="21" height="1"/>
    <rect x="56" y="51" width="35" height="1"/>
    <rect x="13" y="52" width="22" height="1"/>
    <rect x="57" y="52" width="36" height="1"/>
    <rect x="13" y="53" width="22" height="1"/>
    <rect x="58" y="53" width="36" height="1"/>
    <rect x="13" y="54" width="22" height="1"/>
    <rect x="60" y="54" width="35" height="1"/>
    <rect x="14" y="55" width="22" height="1"/>
    <rect x="61" y="55" width="36" height="1"/>
    <rect x="14" y="56" width="22" height="1"/>
    <rect x="63" y="56" width="35" height="1"/>
    <rect x="14" y="57" width="22" height="1"/>
    <rect x="64" y="57" width="35" height="1"/>
    <rect x="15" y="58" width="22" height="1"/>
    <rect x="66" y="58" width="34" height="1"/>
    <rect x="15" y="59" width="22" height="1"/>
    <rect x="67" y="59" width="35" height="1"/>
    <rect x="15" y="60" width="23" height="1"/>
    <rect x="68" y="60" width="35" height="1"/>
    <rect x="16" y="61" width="22" height="1"/>
    <rect x="70" y="61" width="35" height="1"/>
    <rect x="16" y="62" width="23" height="1"/>
    <rect x="71" y="62" width="35" height="1"/>
    <rect x="16" y="63" width="23" height="1"/>
    <rect x="73" y="63" width="34" height="1"/>
    <rect x="17" y="64" width="22" height="1"/>
    <rect x="74" y="64" width="35" height="1"/>
    <rect x="17" y="65" width="23" height="1"/>
    <rect x="75" y="65" width="35" height="1"/>
    <rect x="17" y="66" width="23" height="1"/>
    <rect x="77" y="66" width="34" height="1"/>
    <rect x="18" y="67" width="23" height="1"/>
    <rect x="78" y="67" width="35" height="1"/>
    <rect x="18" y="68" width="23" height="1"/>
    <rect x="79" y="68" width="35" height="1"/>
    <rect x="19" y="69" width="23" height="1"/>
    <rect x="81" y="69" width="34" height="1"/>
    <rect x="19" y="70" width="23" height="1"/>
    <rect x="82" y="70" width="35" height="1"/>
    <rect x="20" y="71" width="23" height="1"/>
    <rect x="83" y="71" width="35" height="1"/>
    <rect x="20" y="72" width="23" height="1"/>
    <rect x="85" y="72" width="34" height="1"/>
    <rect x="20" y="73" width="24" height="1"/>
    <rect x="86" y="73" width="35" height="1"/>
    <rect x="21" y="74" width="23" height="1"/>
    <rect x="87" y="74" width="35" height="1"/>
    <rect x="21" y="75" width="24" height="1"/>
    <rect x="89" y="75" width="34" height="1"/>
    <rect x="22" y="76" width="23" height="1"/>
    <rect x="90" y="76" width="35" height="1"/>
    <rect x="22" y="77" width="24" height="1"/>
    <rect x="92" y="77" width="34" height="1"/>
    <rect x="23" y="78" width="23" height="1"/>
    <rect x="93" y="78" width="34" height="1"/>
    <rect x="23" y="79" width="24" height="1"/>
    <rect x="94" y="79" width="34" height="1"/>
    <rect x="24" y="80" width="24" height="1"/>
    <rect x="95" y="80" width="35" height="1"/>
    <rect x="24" y="81" width="24" height="1"/>
    <rect x="97" y="81" width="34" height="1"/>
    <rect x="25" y="82" width="24" height="1"/>
    <rect x="98" y="82" width="34" height="1"/>
    <rect x="25" y="83" width="25" height="1"/>
    <rect x="100" y="83" width="34" height="1"/>
    <rect x="26" y="84" width="24" height="1"/>
    <rect x="101" y="84" width="34" height="1"/>
    <rect x="27" y="85" width="24" height="1"/>
    <rect x="102" y="85" width="34" height="1"/>
    <rect x="27" y="86" width="25" height="1"/>
    <rect x="104" y="86" width="33" height="1"/>
    <rect x="28" y="87" width="24" height="1"/>
    <rect x="105" y="87" width="34" height="1"/>
    <rect x="28" y="88" width="25" height="1"/>
    <rect x="106" y="88" width="34" height="1"/>
    <rect x="29" y="89" width="25" height="1"/>
    <rect x="108" y="89" width="33" height="1"/>
    <rect x="30" y="90" width="25" height="1"/>
    <rect x="109" y="90" width="33" height="1"/>
    <rect x="30" y="91" width="26" height="1"/>
    <rect x="110" y="91" width="33" height="1"/>
    <rect x="31" y="92" width="25" height="1"/>
    <rect x="111" y="92" width="34" height="1"/>
    <rect x="32" y="93" width="25" height="1"/>
    <rect x="113" y="93" width="33" height="1"/>
    <rect x="32" y="94" width="26" height="1"/>
    <rect x="114" y="94" width="33" height="1"/>
    <rect x="33" y="95" width="26" height="1"/>
    <rect x="115" y="95" width="33" height="1"/>
    <rect x="34" y="96" width="26" height="1"/>
    <rect x="117" y="96" width="32" height="1"/>
    <rect x="34" y="97" width="27" height="1"/>
    <rect x="118" y="97" width="33" height="1"/>
    <rect x="35" y="98" width="26" height="1"/>
    <rect x="119" y="98" width="33" height="1"/>
    <rect x="36" y="99" width="26" height="1"/>
    <rect x="120" y="99" width="33" height="1"/>
    <rect x="37" y="100" width="26" height="1"/>
    <rect x="122" y="100" width="32" height="1"/>
    <rect x="37" y="101" width="27" height="1"/>
    <rect x="123" y="101" width="33" height="1"/>
    <rect x="38" y="102" width="27" height="1"/>
    <rect x="124" y="102" width="33" height="1"/>
    <rect x="39" y="103" width="27" height="1"/>
    <rect x="125" y="103" width="33" height="1"/>
    <rect x="40" y="104" width="27" height="1"/>
    <rect x="127" y="104" width="32" height="1"/>
    <rect x="40" y="105" width="28" height="1"/>
    <rect x="128" y="105" width="32" height="1"/>
    <rect x="41" y="106" width="28" height="1"/>
    <rect x="129" y="106" width="33" height="1"/>
    <rect x="42" y="107" width="28" height="1"/>
    <rect x="131" y="107" width="32" height="1"/>
    <rect x="43" y="108" width="27" height="1"/>
    <rect x="132" y="108" width="32" height="1"/>
    <rect x="44" y="109" width="27" height="1"/>
    <rect x="133" y="109" width="32" height="1"/>
    <rect x="44" y="110" width="28" height="1"/>
    <rect x="134" y="110" width="32" height="1"/>
    <rect x="45" y="111" width="28" height="1"/>
    <rect x="136" y="111" width="31" height="1"/>
    <rect x="46" y="112" width="28" height="1"/>
    <rect x="137" y="112" width="32" height="1"/>
    <rect x="47" y="113" width="28" height="1"/>
    <rect x="138" y="113" width="32" height="1"/>
    <rect x="48" y="114" width="28" height="1"/>
    <rect x="139" y="114" width="32" height="1"/>
    <rect x="49" y="115" width="28" height="1"/>
    <rect x="140" y="115" width="32" height="1"/>
    <rect x="49" y="116" width="29" height="1"/>
    <rect x="142" y="116" width="31" height="1"/>
    <rect x="50" y="117" width="29" height="1"/>
    <rect x="143" y="117" width="31" height="1"/>
    <rect x="51" y="118" width="29" height="1"/>
    <rect x="144" y="118" width="31" height="1"/>
    <rect x="52" y="119" width="29" height="1"/>
    <rect x="145" y="119" width="32" height="1"/>
    <rect x="53" y="120" width="30" height="1"/>
    <rect x="146" y="120" width="32" height="1"/>
    <rect x="54" y="121" width="30" height="1"/>
    <rect x="148" y="121" width="31" height="1"/>
    <rect x="55" y="122" width="30" height="1"/>
    <rect x="149" y="122" width="31" height="1"/>
    <rect x="56" y="123" width="30" height="1"/>
    <rect x="150" y="123" width="31" height="1"/>
    <rect x="57" y="124" width="30" height="1"/>
    <rect x="151" y="124" width="31" height="1"/>
    <rect x="58" y="125" width="30" height="1"/>
    <rect x="152" y="125" width="31" height="1"/>
    <rect x="39" y="126" width="17" height="1"/>
    <rect x="59" y="126" width="30" height="1"/>
    <rect x="153" y="126" width="31" height="1"/>
    <rect x="34" y="127" width="56" height="1"/>
    <rect x="154" y="127" width="30" height="1"/>
    <rect x="31" y="128" width="60" height="1"/>
    <rect x="156" y="128" width="29" height="1"/>
    <rect x="28" y="129" width="64" height="1"/>
    <rect x="157" y="129" width="28" height="1"/>
    <rect x="26" y="130" width="67" height="1"/>
    <rect x="158" y="130" width="28" height="1"/>
    <rect x="24" y="131" width="70" height="1"/>
    <rect x="159" y="131" width="27" height="1"/>
    <rect x="23" y="132" width="72" height="1"/>
    <rect x="160" y="132" width="26" height="1"/>
    <rect x="22" y="133" width="74" height="1"/>
    <rect x="161" y="133" width="25" height="1"/>
    <rect x="21" y="134" width="76" height="1"/>
    <rect x="162" y="134" width="24" height="1"/>
    <rect x="20" y="135" width="79" height="1"/>
    <rect x="163" y="135" width="23" height="1"/>
    <rect x="19" y="136" width="81" height="1"/>
    <rect x="164" y="136" width="21" height="1"/>
    <rect x="18" y="137" width="83" height="1"/>
    <rect x="165" y="137" width="20" height="1"/>
    <rect x="17" y="138" width="85" height="1"/>
    <rect x="166" y="138" width="18" height="1"/>
    <rect x="17" y="139" width="86" height="1"/>
    <rect x="167" y="139" width="17" height="1"/>
    <rect x="16" y="140" width="88" height="1"/>
    <rect x="168" y="140" width="15" height="1"/>
    <rect x="15" y="141" width="89" height="1"/>
    <rect x="170" y="141" width="12" height="1"/>
    <rect x="15" y="142" width="90" height="1"/>
    <rect x="171" y="142" width="9" height="1"/>
    <rect x="14" y="143" width="91" height="1"/>
    <rect x="14" y="144" width="91" height="1"/>
    <rect x="14" y="145" width="91" height="1"/>
    <rect x="13" y="146" width="93" height="1"/>
    <rect x="13" y="147" width="28" height="1"/>
    <rect x="55" y="147" width="51" height="1"/>
    <rect x="13" y="148" width="25" height="1"/>
    <rect x="62" y="148" width="43" height="1"/>
    <rect x="13" y="149" width="23" height="1"/>
    <rect x="66" y="149" width="39" height="1"/>
    <rect x="13" y="150" width="22" height="1"/>
    <rect x="70" y="150" width="35" height="1"/>
    <rect x="13" y="151" width="21" height="1"/>
    <rect x="74" y="151" width="31" height="1"/>
    <rect x="12" y="152" width="22" height="1"/>
    <rect x="76" y="152" width="29" height="1"/>
    <rect x="12" y="153" width="22" height="1"/>
    <rect x="80" y="153" width="24" height="1"/>
    <rect x="12" y="154" width="21" height="1"/>
    <rect x="82" y="154" width="21" height="1"/>
    <rect x="12" y="155" width="21" height="1"/>
    <rect x="85" y="155" width="18" height="1"/>
    <rect x="12" y="156" width="22" height="1"/>
    <rect x="87" y="156" width="14" height="1"/>
    <rect x="13" y="157" width="21" height="1"/>
    <rect x="90" y="157" width="10" height="1"/>
    <rect x="13" y="158" width="21" height="1"/>
    <rect x="92" y="158" width="5" height="1"/>
    <rect x="13" y="159" width="21" height="1"/>
    <rect x="13" y="160" width="21" height="1"/>
    <rect x="13" y="161" width="21" height="1"/>
    <rect x="13" y="162" width="22" height="1"/>
    <rect x="13" y="163" width="22" height="1"/>
    <rect x="14" y="164" width="21" height="1"/>
    <rect x="14" y="165" width="22" height="1"/>
    <rect x="14" y="166" width="22" height="1"/>
    <rect x="14" y="167" width="23" height="1"/>
    <rect x="15" y="168" width="22" height="1"/>
    <rect x="15" y="169" width="23" height="1"/>
    <rect x="15" y="170" width="23" height="1"/>
    <rect x="16" y="171" width="23" height="1"/>
    <rect x="16" y="172" width="24" height="1"/>
    <rect x="17" y="173" width="24" height="1"/>
    <rect x="17" y="174" width="24" height="1"/>
    <rect x="18" y="175" width="24" height="1"/>
    <rect x="18" y="176" width="25" height="1"/>
    <rect x="19" y="177" width="25" height="1"/>
    <rect x="19" y="178" width="26" height="1"/>
    <rect x="20" y="179" width="25" height="1"/>
    <rect x="20" y="180" width="26" height="1"/>
    <rect x="21" y="181" width="26" height="1"/>
    <rect x="22" y="182" width="26" height="1"/>
    <rect x="22" y="183" width="27" height="1"/>
    <rect x="23" y="184" width="28" height="1"/>
    <rect x="24" y="185" width="28" height="1"/>
    <rect x="24" y="186" width="29" height="1"/>
    <rect x="25" y="187" width="29" height="1"/>
    <rect x="26" y="188" width="29" height="1"/>
    <rect x="27" y="189" width="29" height="1"/>
    <rect x="28" y="190" width="30" height="1"/>
    <rect x="29" y="191" width="30" height="1"/>
    <rect x="29" y="192" width="31" height="1"/>
    <rect x="30" y="193" width="32" height="1"/>
    <rect x="31" y="194" width="33" height="1"/>
    <rect x="32" y="195" width="33" height="1"/>
    <rect x="33" y="196" width="34" height="1"/>
    <rect x="34" y="197" width="35" height="1"/>
    <rect x="35" y="198" width="36" height="1"/>
    <rect x="36" y="199" width="37" height="1"/>
    <rect x="37" y="200" width="38" height="1"/>
    <rect x="39" y="201" width="38" height="1"/>
    <rect x="40" y="202" width="40" height="1"/>
    <rect x="41" y="203" width="42" height="1"/>
    <rect x="42" y="204" width="45" height="1"/>
    <rect x="44" y="205" width="48" height="1"/>
    <rect x="45" y="206" width="50" height="1"/>
    <rect x="46" y="207" width="51" height="1"/>
    <rect x="48" y="208" width="50" height="1"/>
    <rect x="49" y="209" width="50" height="1"/>
    <rect x="51" y="210" width="48" height="1"/>
    <rect x="52" y="211" width="48" height="1"/>
    <rect x="54" y="212" width="46" height="1"/>
    <rect x="55" y="213" width="46" height="1"/>
    <rect x="57" y="214" width="44" height="1"/>
    <rect x="59" y="215" width="42" height="1"/>
    <rect x="60" y="216" width="41" height="1"/>
    <rect x="59" y="217" width="42" height="1"/>
    <rect x="57" y="218" width="44" height="1"/>
    <rect x="56" y="219" width="45" height="1"/>
    <rect x="54" y="220" width="47" height="1"/>
    <rect x="53" y="221" width="47" height="1"/>
    <rect x="52" y="222" width="48" height="1"/>
    <rect x="51" y="223" width="48" height="1"/>
    <rect x="50" y="224" width="49" height="1"/>
    <rect x="49" y="225" width="49" height="1"/>
    <rect x="47" y="226" width="50" height="1"/>
    <rect x="47" y="227" width="48" height="1"/>
    <rect x="46" y="228" width="44" height="1"/>
    <rect x="45" y="229" width="39" height="1"/>
    <rect x="44" y="230" width="36" height="1"/>
    <rect x="43" y="231" width="34" height="1"/>
    <rect x="42" y="232" width="33" height="1"/>
    <rect x="42" y="233" width="31" height="1"/>
    <rect x="41" y="234" width="30" height="1"/>
    <rect x="40" y="235" width="29" height="1"/>
    <rect x="40" y="236" width="28" height="1"/>
    <rect x="39" y="237" width="27" height="1"/>
    <rect x="39" y="238" width="26" height="1"/>
    <rect x="38" y="239" width="26" height="1"/>
    <rect x="38" y="240" width="25" height="1"/>
    <rect x="37" y="241" width="25" height="1"/>
    <rect x="37" y="242" width="24" height="1"/>
    <rect x="37" y="243" width="23" height="1"/>
    <rect x="36" y="244" width="23" height="1"/>
    <rect x="36" y="245" width="22" height="1"/>
    <rect x="36" y="246" width="22" height="1"/>
    <rect x="35" y="247" width="22" height="1"/>
    <rect x="35" y="248" width="22" height="1"/>
    <rect x="35" y="249" width="22" height="1"/>
    <rect x="35" y="250" width="21" height="1"/>
    <rect x="35" y="251" width="21" height="1"/>
    <rect x="35" y="252" width="21" height="1"/>
    <rect x="35" y="253" width="21" height="1"/>
    <rect x="35" y="254" width="21" height="1"/>
    <rect x="35" y="255" width="21" height="1"/>
    <rect x="35" y="256" width="22" height="1"/>
    <rect x="35" y="257" width="22" height="1"/>
    <rect x="113" y="257" width="10" height="1"/>
    <rect x="35" y="258" width="23" height="1"/>
    <rect x="110" y="258" width="15" height="1"/>
    <rect x="35" y="259" width="25" height="1"/>
    <rect x="107" y="259" width="19" height="1"/>
    <rect x="35" y="260" width="26" height="1"/>
    <rect x="104" y="260" width="23" height="1"/>
    <rect x="36" y="261" width="27" height="1"/>
    <rect x="101" y="261" width="27" height="1"/>
    <rect x="36" y="262" width="30" height="1"/>
    <rect x="96" y="262" width="32" height="1"/>
    <rect x="36" y="263" width="33" height="1"/>
    <rect x="91" y="263" width="38" height="1"/>
    <rect x="37" y="264" width="40" height="1"/>
    <rect x="80" y="264" width="1" height="1"/>
    <rect x="82" y="264" width="2" height="1"/>
    <rect x="85" y="264" width="44" height="1"/>
    <rect x="37" y="265" width="93" height="1"/>
    <rect x="38" y="266" width="92" height="1"/>
    <rect x="39" y="267" width="91" height="1"/>
    <rect x="39" y="268" width="91" height="1"/>
    <rect x="40" y="269" width="90" height="1"/>
    <rect x="41" y="270" width="89" height="1"/>
    <rect x="42" y="271" width="88" height="1"/>
    <rect x="43" y="272" width="87" height="1"/>
    <rect x="44" y="273" width="85" height="1"/>
    <rect x="45" y="274" width="84" height="1"/>
    <rect x="46" y="275" width="82" height="1"/>
    <rect x="47" y="276" width="81" height="1"/>
    <rect x="49" y="277" width="78" height="1"/>
    <rect x="51" y="278" width="75" height="1"/>
    <rect x="52" y="279" width="73" height="1"/>
    <rect x="55" y="280" width="69" height="1"/>
    <rect x="57" y="281" width="67" height="1"/>
    <rect x="60" y="282" width="63" height="1"/>
    <rect x="63" y="283" width="59" height="1"/>
    <rect x="68" y="284" width="24" height="1"/>
    <rect x="97" y="284" width="24" height="1"/>
    <rect x="96" y="285" width="25" height="1"/>
    <rect x="162" y="285" width="8" height="1"/>
    <rect x="96" y="286" width="24" height="1"/>
    <rect x="160" y="286" width="11" height="1"/>
    <rect x="96" y="287" width="23" height="1"/>
    <rect x="159" y="287" width="14" height="1"/>
    <rect x="95" y="288" width="24" height="1"/>
    <rect x="158" y="288" width="16" height="1"/>
    <rect x="95" y="289" width="23" height="1"/>
    <rect x="156" y="289" width="18" height="1"/>
    <rect x="95" y="290" width="23" height="1"/>
    <rect x="155" y="290" width="20" height="1"/>
    <rect x="94" y="291" width="23" height="1"/>
    <rect x="154" y="291" width="21" height="1"/>
    <rect x="94" y="292" width="23" height="1"/>
    <rect x="153" y="292" width="23" height="1"/>
    <rect x="94" y="293" width="22" height="1"/>
    <rect x="151" y="293" width="25" height="1"/>
    <rect x="93" y="294" width="23" height="1"/>
    <rect x="150" y="294" width="26" height="1"/>
    <rect x="93" y="295" width="22" height="1"/>
    <rect x="148" y="295" width="28" height="1"/>
    <rect x="93" y="296" width="22" height="1"/>
    <rect x="147" y="296" width="29" height="1"/>
    <rect x="93" y="297" width="22" height="1"/>
    <rect x="145" y="297" width="31" height="1"/>
    <rect x="93" y="298" width="21" height="1"/>
    <rect x="143" y="298" width="32" height="1"/>
    <rect x="93" y="299" width="21" height="1"/>
    <rect x="140" y="299" width="35" height="1"/>
    <rect x="93" y="300" width="21" height="1"/>
    <rect x="138" y="300" width="36" height="1"/>
    <rect x="93" y="301" width="21" height="1"/>
    <rect x="135" y="301" width="39" height="1"/>
    <rect x="93" y="302" width="22" height="1"/>
    <rect x="132" y="302" width="41" height="1"/>
    <rect x="93" y="303" width="24" height="1"/>
    <rect x="126" y="303" width="46" height="1"/>
    <rect x="93" y="304" width="78" height="1"/>
    <rect x="93" y="305" width="77" height="1"/>
    <rect x="93" y="306" width="76" height="1"/>
    <rect x="94" y="307" width="74" height="1"/>
    <rect x="94" y="308" width="72" height="1"/>
    <rect x="94" y="309" width="71" height="1"/>
    <rect x="95" y="310" width="69" height="1"/>
    <rect x="95" y="311" width="67" height="1"/>
    <rect x="96" y="312" width="65" height="1"/>
    <rect x="96" y="313" width="63" height="1"/>
    <rect x="97" y="314" width="60" height="1"/>
    <rect x="98" y="315" width="57" height="1"/>
    <rect x="99" y="316" width="54" height="1"/>
    <rect x="100" y="317" width="51" height="1"/>
    <rect x="101" y="318" width="48" height="1"/>
    <rect x="102" y="319" width="45" height="1"/>
    <rect x="104" y="320" width="40" height="1"/>
    <rect x="106" y="321" width="35" height="1"/>
    <rect x="109" y="322" width="29" height="1"/>
    <rect x="111" y="323" width="23" height="1"/>
    <rect x="116" y="324" width="12" height="1"/>
  </g>
</svg>